Coordinates
datacolumns 6
datarows 164
range 0 1.63
inDegrees=yes
Units are S.I. units (second, meters, Newtons, ...)
If the header above contains a line with 'inDegrees', this indicates whether rotational values are in degrees (yes) or radians (no).
endheader
time	foot_tx	hip_flexion_r	knee_angle_r	ankle_angle_r	lumbar
0	0.25896435	63.21818751	-61.49935713	-2.48164598	-12.57566916
0.01	0.25895853	63.35301584	-61.49251663	-2.47299813	-12.68614641
0.02	0.25899152	63.57212605	-61.47754169	-2.47424774	-12.70976301
0.03	0.25901412	63.79010715	-61.47023246	-2.46723481	-12.74724805
0.04	0.25905238	64.03522658	-61.46122731	-2.46077492	-12.7651268
0.05	0.2590662	64.30537337	-61.46396674	-2.4435542	-12.76395332
0.06	0.25910446	64.58089754	-61.46103566	-2.42703724	-12.76561244
0.07	0.25912883	64.85173887	-61.4617634	-2.40229579	-12.78137797
0.08	0.25915195	65.10554079	-61.46300659	-2.37095515	-12.82477679
0.09	0.25917478	65.34589124	-61.46403008	-2.33520306	-12.89536902
0.1	0.25918904	65.58584717	-61.46609767	-2.29706159	-12.98585764
0.11	0.2591985	65.84101235	-61.4689714	-2.26013095	-13.08396607
0.12	0.25920262	66.12110199	-61.47223333	-2.2267203	-13.18257626
0.13	0.25920081	66.42859951	-61.47557273	-2.19755896	-13.28018761
0.14	0.25919227	66.76016076	-61.478873	-2.17202972	-13.38039625
0.15	0.25918209	67.11537014	-61.4811526	-2.15005309	-13.48165756
0.16	0.25916938	67.49058321	-61.48333473	-2.12952842	-13.58624079
0.17	0.25915346	67.88184131	-61.4850743	-2.10924237	-13.69721401
0.18	0.25913754	68.28972316	-61.48570507	-2.08908048	-13.81252006
0.19	0.25912393	68.71138767	-61.48298739	-2.06993215	-13.93639924
0.2	0.2590998	69.14461574	-61.47900712	-2.04949238	-14.07420357
0.21	0.25907046	69.58969907	-61.47213223	-2.02935742	-14.22886518
0.22	0.2590156	70.05056465	-61.46901631	-2.00467923	-14.39925656
0.23	0.25897163	70.52115028	-61.45661959	-1.98543439	-14.59675946
0.24	0.25890042	71.01025677	-61.4488948	-1.96150115	-14.81339756
0.25	0.25883048	71.52064046	-61.43422559	-1.94164397	-15.0501809
0.26	0.25872958	72.05376315	-61.42842953	-1.91452681	-15.30559654
0.27	0.25863989	72.61368882	-61.41436164	-1.89251886	-15.57884845
0.28	0.25853239	73.20092454	-61.4082245	-1.8634294	-15.86749536
0.29	0.25842964	73.82496969	-61.39792231	-1.83506992	-16.16268128
0.3	0.25833498	74.48304599	-61.38795707	-1.80362423	-16.46319757
0.31	0.25823117	75.18500344	-61.38067008	-1.76563289	-16.75519212
0.32	0.25813507	75.93790301	-61.36989307	-1.72466143	-17.02407366
0.33	0.25804117	76.7536367	-61.35588283	-1.67939223	-17.24812236
0.34	0.25793605	77.63687363	-61.33942335	-1.6268915	-17.41559389
0.35	0.25784229	78.59280762	-61.31539365	-1.570752	-17.51164572
0.36	0.25774061	79.6237161	-61.28847383	-1.50524114	-17.52736399
0.37	0.25763237	80.73153868	-61.26185848	-1.42685481	-17.45293579
0.38	0.25751892	81.90433688	-61.23757431	-1.33196211	-17.29673678
0.39	0.25739148	83.13784065	-61.22080151	-1.21427585	-17.05951989
0.4	0.25724664	84.42287842	-61.21573972	-1.06872782	-16.74774977
0.41	0.25708254	85.7467067	-61.22244345	-0.89284809	-16.37245205
0.42	0.2568963	87.09627594	-61.24157177	-0.68419017	-15.94465924
0.43	0.25669153	88.4596125	-61.27308464	-0.44222607	-15.47309594
0.44	0.25647455	89.82119398	-61.31638946	-0.16676747	-14.97099321
0.45	0.25625915	91.16974746	-61.36780284	0.13918574	-14.44609624
0.46	0.25606371	92.48095998	-61.43142086	0.47616067	-13.92408507
0.47	0.25590394	93.75694771	-61.50136317	0.83815154	-13.39749779
0.48	0.25580196	94.98846703	-61.58163518	1.22324609	-12.87490975
0.49	0.25576006	96.16787764	-61.67742182	1.63073097	-12.36349642
0.5	0.25578505	97.28894743	-61.79586773	2.06042898	-11.86860477
0.51	0.2558778	98.34974033	-61.9451893	2.51287394	-11.38949638
0.52	0.25603594	99.32978671	-62.1384619	2.99227392	-10.94857847
0.53	0.25626087	100.2251789	-62.38249305	3.49872311	-10.54451292
0.54	0.25655444	101.0135216	-62.68750651	4.03521408	-10.19973134
0.55	0.25692179	101.685265	-63.05452242	4.60046121	-9.91799445
0.56	0.25736314	102.2306145	-63.47982886	5.19189742	-9.7029173
0.57	0.25787087	102.6372375	-63.95597862	5.80656703	-9.56117227
0.58	0.25843278	102.9026215	-64.46693678	6.43781839	-9.48680702
0.59	0.25902954	103.0246047	-65.00472419	7.08384693	-9.47189931
0.6	0.25964868	102.9902234	-65.55002839	7.73769893	-9.53014069
0.61	0.2602777	102.8308296	-66.08517774	8.39181691	-9.61385864
0.62	0.26090064	102.5444084	-66.60069617	9.04400965	-9.72790532
0.63	0.26150889	102.1462229	-67.08134176	9.68836711	-9.85438484
0.64	0.26209588	101.6484778	-67.51588673	10.32025342	-9.98232958
0.65	0.26265762	101.074307	-67.89586103	10.93511751	-10.08631871
0.66	0.26318739	100.4285171	-68.21398045	11.52969014	-10.16872445
0.67	0.26369407	99.73932651	-68.46442197	12.0980218	-10.20082168
0.68	0.26416645	99.00541888	-68.63896636	12.63624808	-10.19469777
0.69	0.26461085	98.2298999	-68.73145299	13.13933173	-10.15559619
0.7	0.26501906	97.41744376	-68.73966215	13.60543689	-10.08608978
0.71	0.26540048	96.56065309	-68.66303877	14.03274776	-10.00290036
0.72	0.26575949	95.6521086	-68.5051006	14.42187541	-9.92149021
0.73	0.26609293	94.69960921	-68.27006457	14.77374761	-9.83722835
0.74	0.26641324	93.70023817	-67.96470826	15.08981415	-9.75788918
0.75	0.266721	92.6612898	-67.5956859	15.37195532	-9.67741367
0.76	0.26702408	91.58838936	-67.16906366	15.62158407	-9.58972676
0.77	0.26733176	90.49058274	-66.68891838	15.8394326	-9.4820437
0.78	0.26764655	89.36608441	-66.15833686	16.02732397	-9.35152603
0.79	0.26796832	88.20748397	-65.57465926	16.18497332	-9.20286856
0.8	0.26830041	87.00305797	-64.94191878	16.31532163	-9.04674181
0.81	0.26863842	85.74282216	-64.26281112	16.42099734	-8.89640608
0.82	0.2689771	84.42375687	-63.54203544	16.50494382	-8.76001088
0.83	0.26930903	83.04214207	-62.78421969	16.56991594	-8.64977255
0.84	0.26962721	81.60035886	-61.99204305	16.61681711	-8.57186338
0.85	0.26992777	80.11284045	-61.16491855	16.64352182	-8.51767282
0.86	0.27020721	78.59326357	-60.30148657	16.64750183	-8.47875784
0.87	0.27046789	77.05526788	-59.40026356	16.62600546	-8.44587364
0.88	0.27071644	75.50601368	-58.46121781	16.57780562	-8.41621421
0.89	0.27095888	73.94586563	-57.48555565	16.50350652	-8.39313164
0.9	0.27119759	72.37190591	-56.47502117	16.40482756	-8.38168888
0.91	0.27143222	70.78304914	-55.43149564	16.28362578	-8.38235897
0.92	0.27166202	69.18068448	-54.35614043	16.14106361	-8.39005033
0.93	0.27188724	67.56572082	-53.24851257	15.97718738	-8.39791055
0.94	0.2721088	65.93915038	-52.10685125	15.79112674	-8.39831214
0.95	0.27232745	64.30414003	-50.92941959	15.58180183	-8.38259034
0.96	0.27254393	62.66585016	-49.71446207	15.34789465	-8.34178888
0.97	0.27275766	61.03459537	-48.46173356	15.08875308	-8.26374151
0.98	0.27297286	59.42304938	-47.16860328	14.80178536	-8.1327296
0.99	0.27318457	57.81158422	-45.83678281	14.49061396	-7.97040645
1	0.27340108	56.19606813	-44.46381065	14.15333552	-7.78694206
1.01	0.27362145	54.55268084	-43.05369803	13.79402176	-7.61766609
1.02	0.27384996	52.87267632	-41.61060881	13.41599599	-7.47365719
1.03	0.27408898	51.14884938	-40.14185829	13.02402788	-7.36525736
1.04	0.27433651	49.36814444	-38.65476279	12.62381494	-7.3063942
1.05	0.27459602	47.54503603	-37.15303897	12.21645039	-7.27928578
1.06	0.27485829	45.67191929	-35.64160071	11.80600374	-7.29268483
1.07	0.27512127	43.76358756	-34.12036544	11.39146232	-7.32967683
1.08	0.27538461	41.83978844	-32.58688208	10.97004299	-7.3676021
1.09	0.27564866	39.92361808	-31.03852284	10.5384583	-7.37998879
1.1	0.27590945	38.02900512	-29.4759518	10.09584775	-7.35128768
1.11	0.2761715	36.18444849	-27.90066249	9.63920232	-7.25241258
1.12	0.27642794	34.38999922	-26.32038471	9.17127484	-7.09193216
1.13	0.27667449	32.64235198	-24.7445887	8.69488357	-6.88918811
1.14	0.27690698	30.94463729	-23.18556589	8.21339373	-6.661388
1.15	0.27711825	29.296372	-21.65834585	7.73203497	-6.43247342
1.16	0.27729699	27.69230196	-20.18017392	7.25864479	-6.23097533
1.17	0.27744429	26.15644464	-18.7652459	6.79868748	-6.04385773
1.18	0.2775286	24.70323246	-17.43018024	6.36700029	-5.8523721
1.19	0.27756743	23.37008542	-16.19084426	5.97606182	-5.60675399
1.2	0.27754387	22.17368113	-15.04367818	5.63696915	-5.24282888
1.21	0.27747047	21.12655989	-13.98678606	5.35398055	-4.72714593
1.22	0.27736455	20.23049773	-13.01247334	5.12116474	-4.05722489
1.23	0.27724758	19.48356074	-12.11546158	4.92768954	-3.25542515
1.24	0.27712622	18.77209385	-11.28326251	4.76365365	-2.47737619
1.25	0.27701147	18.1096614	-10.51681876	4.61932868	-1.73628101
1.26	0.27690748	17.49635616	-9.81698491	4.48759794	-1.05680605
1.27	0.27680682	16.93012576	-9.18554029	4.36372329	-0.46272732
1.28	0.27669627	16.33102908	-8.61012936	4.24442318	-0.04750006
1.29	0.27657527	15.78599705	-8.08416752	4.1259568	0.30892319
1.3	0.27643144	15.28725562	-7.59527005	4.01430555	0.64643553
1.31	0.27626291	14.82779144	-7.12508189	3.90989821	0.9995415
1.32	0.27606459	14.42701663	-6.66736896	3.81344011	1.41381731
1.33	0.27584028	14.03362363	-6.21885799	3.72220501	1.82110106
1.34	0.27559944	13.65778792	-5.78701086	3.6347144	2.21588582
1.35	0.27535175	13.29606923	-5.37615257	3.55559417	2.60346475
1.36	0.27511229	12.93299961	-4.97934447	3.49165019	3.00713591
1.37	0.27489308	12.6209951	-4.59838349	3.4498158	3.52230648
1.38	0.27469918	12.28232683	-4.21673469	3.4270652	4.07402866
1.39	0.2745275	11.94484939	-3.843101	3.41858423	4.66283388
1.4	0.27436958	11.61775769	-3.48736181	3.41612319	5.24686943
1.41	0.27421239	11.30605859	-3.15449387	3.41134702	5.78805731
1.42	0.27404899	11.0125557	-2.84588304	3.39996039	6.2698446
1.43	0.27387079	10.73316629	-2.56020656	3.38227936	6.68809397
1.44	0.27368676	10.47073666	-2.28660915	3.35480483	7.06187131
1.45	0.27347932	10.19266129	-2.02553416	3.3245455	7.36573529
1.46	0.27326359	9.93515458	-1.77572886	3.29165813	7.65595489
1.47	0.27303529	9.69075824	-1.53505146	3.25812578	7.93423178
1.48	0.27279816	9.45453513	-1.30276138	3.22536972	8.20120518
1.49	0.27255446	9.2205747	-1.07710689	3.19341875	8.4532896
1.5	0.27230913	8.99133334	-0.85818318	3.16237548	8.69553424
1.51	0.27205544	8.76917846	-0.64944257	3.13426885	8.92803727
1.52	0.27180596	8.55501826	-0.45050181	3.10831184	9.15271435
1.53	0.27156263	8.35076704	-0.26474818	3.08561452	9.36702561
1.54	0.27132958	8.15716471	-0.09334121	3.06681718	9.57280255
1.55	0.27111138	7.97629417	0.06240862	3.05189189	9.7698666
1.56	0.27090096	7.80461637	0.20510377	3.04040764	9.95715866
1.57	0.27070293	7.64448931	0.33673242	3.03036964	10.13552041
1.58	0.27051191	7.49311172	0.45909343	3.02137519	10.30502375
1.59	0.27032238	7.34978951	0.57768569	3.01061729	10.46588596
1.6	0.270135	7.21488975	0.693077	2.99775677	10.61981333
1.61	0.26995338	7.08657518	0.80476036	2.98292898	10.76443338
1.62	0.26978544	6.96686103	0.90982466	2.96737431	10.90151929
1.63	0.26963724	6.85742841	1.00168137	2.95423507	11.03019357
